<?xml version="1.0" encoding="utf-8"?>
<!-- Svg Vector Icons : http://www.onlinewebfonts.com/icon -->
<!DOCTYPE svg PUBLIC "-//W3C//DTD SVG 1.1//EN" "http://www.w3.org/Graphics/SVG/1.1/DTD/svg11.dtd">
<svg version="1.1" xmlns="http://www.w3.org/2000/svg" xmlns:xlink="http://www.w3.org/1999/xlink" x="0px" y="0px" viewBox="0 0 256 256" enable-background="new 0 0 256 256" xml:space="preserve">
<metadata> Svg Vector Icons : http://www.onlinewebfonts.com/icon </metadata>
<g><g><path fill="#000000" d="M17.4,246h221.2c4.1,0,7.4-3.3,7.4-7.4c0-4.1-3.3-7.4-7.4-7.4H24.8V17.4c0-4.1-3.3-7.4-7.4-7.4c-4.1,0-7.4,3.3-7.4,7.4v221.2C10,242.7,13.3,246,17.4,246z"/><path fill="#000000" d="M53.2,188.3c8.7,0,15.7-8,15.7-17.8c0-2.4-0.4-4.6-1.2-6.7l31-40.5c1.5,0.5,3.1,0.8,4.7,0.8c4.6,0,8.7-2.2,11.6-5.8l29.3,16.7c0.1,9.8,7.1,17.7,15.7,17.7c8.7,0,15.7-8,15.7-17.8c0-0.3,0-0.7,0-1l40.8-39.8c2,1,4.1,1.5,6.4,1.5c8.7,0,15.7-8,15.7-17.8c0-9.8-7-17.8-15.7-17.8c-8.7,0-15.7,8-15.7,17.8c0,2,0.3,4,0.8,5.8l-38.1,37.3c-2.7-2.4-6.1-3.9-9.8-3.9c-4.3,0-8.1,2-11,5.1l-29.9-17c-0.6-9.3-7.3-16.6-15.7-16.6c-8.7,0-15.7,8-15.7,17.8c0,2.7,0.5,5.3,1.5,7.6l-30.5,40c-1.7-0.7-3.6-1.1-5.5-1.1c-8.7,0-15.7,8-15.7,17.8C37.5,180.3,44.5,188.3,53.2,188.3z"/></g></g>
</svg>